<svg width="11" height="15" viewBox="0 0 11 15" fill="none" xmlns="http://www.w3.org/2000/svg">
<path d="M5.49999 14.1456C4.50758 13.2991 3.58771 12.3711 2.74999 11.3712C1.49285 9.86973 6.90558e-07 7.6336 6.90558e-07 5.50274C-0.000544514 4.4145 0.321756 3.35056 0.926114 2.44556C1.53047 1.54056 2.38972 0.835187 3.39512 0.418712C4.40051 0.0022367 5.50686 -0.106621 6.57415 0.105915C7.64143 0.318452 8.62168 0.842828 9.39083 1.61268C9.90292 2.1225 10.3088 2.72882 10.585 3.39654C10.8612 4.06427 11.0023 4.78015 11 5.50274C11 7.6336 9.50712 9.86973 8.24998 11.3712C7.41226 12.3711 6.49239 13.2991 5.49999 14.1456ZM5.49999 3.14561C4.87484 3.14561 4.27529 3.39395 3.83324 3.836C3.39119 4.27805 3.14285 4.87759 3.14285 5.50274C3.14285 6.1279 3.39119 6.72744 3.83324 7.16949C4.27529 7.61154 4.87484 7.85988 5.49999 7.85988C6.12514 7.85988 6.72469 7.61154 7.16673 7.16949C7.60878 6.72744 7.85712 6.1279 7.85712 5.50274C7.85712 4.87759 7.60878 4.27805 7.16673 3.836C6.72469 3.39395 6.12514 3.14561 5.49999 3.14561Z" fill="#96D1FC"/>
</svg>
