<svg width="22" height="22" viewBox="0 0 22 22" fill="none" xmlns="http://www.w3.org/2000/svg">
<path fill-rule="evenodd" clip-rule="evenodd" d="M0.25 11C0.25 5.06294 5.06294 0.25 11 0.25C16.9371 0.25 21.75 5.06294 21.75 11C21.75 14.0485 20.4801 16.8016 18.4425 18.7571C16.5117 20.61 13.8882 21.75 11 21.75C8.11182 21.75 5.48833 20.61 3.55751 18.7571C1.51989 16.8016 0.25 14.0485 0.25 11ZM17.0831 17.9685C16.6521 16.6792 15.4339 15.75 14 15.75H8C6.56613 15.75 5.34791 16.6792 4.91687 17.9685C6.54352 19.3898 8.67062 20.25 11 20.25C13.3294 20.25 15.4565 19.3898 17.0831 17.9685ZM11 3.25C8.37665 3.25 6.25 5.37665 6.25 8C6.25 10.6234 8.37665 12.75 11 12.75C13.6234 12.75 15.75 10.6234 15.75 8C15.75 5.37665 13.6234 3.25 11 3.25Z" fill="#2D264B"/>
</svg>
