<svg width="20" height="20" viewBox="0 0 20 20" fill="none" xmlns="http://www.w3.org/2000/svg">
<path d="M13.164 8.46001C13.2187 8.9959 13.25 9.5146 13.25 10C13.25 10.9087 13.1402 11.9348 12.9722 12.9722C11.9348 13.1402 10.9087 13.25 10 13.25C9.09541 13.25 8.06965 13.1405 7.02773 12.9719C6.85982 11.9345 6.75 10.9086 6.75 10C6.75 9.51475 6.78132 8.99605 6.83609 8.46001C7.9296 8.63506 9.02047 8.75 10 8.75C10.9796 8.75 12.0705 8.63506 13.164 8.46001Z" fill="#2D264B"/>
<path d="M14.6431 8.18992C14.7107 8.81706 14.75 9.42766 14.75 10C14.75 10.8352 14.6664 11.7514 14.5333 12.6812C16.4214 12.2872 18.1667 11.7839 19.1016 11.4974C19.4038 11.4047 19.5224 11.3679 19.6817 11.3042C19.7613 11.2724 19.8343 11.24 19.9294 11.1945C19.976 10.8029 20 10.4042 20 10C20 8.93145 19.8324 7.90204 19.5221 6.93663L19.4412 6.96207C18.4637 7.25947 16.6335 7.78524 14.6431 8.18992Z" fill="#2D264B"/>
<path d="M18.954 5.54236C17.9712 5.8402 16.2657 6.32419 14.438 6.70098C14.017 4.14215 13.279 1.59001 12.924 0.434266C15.564 1.24025 17.7403 3.10921 18.954 5.54236Z" fill="#2D264B"/>
<path d="M12.9635 6.97361C11.9289 7.14077 10.906 7.25 10 7.25C9.09403 7.25 8.07121 7.14078 7.0366 6.97362C7.43306 4.55243 8.14078 2.0791 8.50265 0.89841C8.59525 0.596246 8.63208 0.477564 8.6958 0.318264C8.72763 0.238688 8.76003 0.165696 8.80546 0.0706097C9.19714 0.0239856 9.59577 0 10 0C10.4223 0 10.8384 0.0261729 11.2469 0.0769851C11.2556 0.110132 11.2636 0.139798 11.2715 0.167863C11.2949 0.250792 11.3316 0.367336 11.3931 0.562894L11.3996 0.583438C11.7081 1.56403 12.5256 4.29906 12.9635 6.97361Z" fill="#2D264B"/>
<path d="M5.56194 6.70095C5.98105 4.1534 6.71415 1.61501 7.06849 0.458866L7.07603 0.434256C4.43597 1.24024 2.25972 3.10919 1.04604 5.54234C2.02874 5.84018 3.73424 6.32415 5.56194 6.70095Z" fill="#2D264B"/>
<path d="M0.477942 6.93662C0.167598 7.90204 0 8.93145 0 10C0 10.418 0.0256482 10.83 0.0754567 11.2346L0.233055 11.2871L0.23431 11.2875L0.235855 11.288L0.236944 11.2884C0.287668 11.3052 1.77434 11.7962 3.73217 12.2833C4.28463 12.4207 4.86959 12.5566 5.46672 12.6811C5.33357 11.7513 5.25 10.8351 5.25 10C5.25 9.42747 5.28928 8.81687 5.35688 8.1899C3.36598 7.78511 1.53541 7.25916 0.558063 6.9618L0.551268 6.95973L0.477942 6.93662Z" fill="#2D264B"/>
<path d="M10 14.75C10.8352 14.75 11.7514 14.6664 12.6812 14.5333C12.2872 16.4214 11.7839 18.1667 11.4974 19.1016C11.4048 19.4037 11.3679 19.5224 11.3042 19.6817C11.2724 19.7613 11.24 19.8343 11.1945 19.9294C10.8029 19.976 10.4042 20 10 20C9.59577 20 9.19714 19.976 8.80546 19.9294C8.76003 19.8343 8.72763 19.7613 8.6958 19.6817C8.63208 19.5224 8.59526 19.4038 8.50265 19.1016C8.21614 18.1668 7.71282 16.4216 7.31884 14.5336C8.24565 14.6663 9.16196 14.75 10 14.75Z" fill="#2D264B"/>
<path d="M3.37 13.7389C2.13193 13.4309 1.07748 13.1215 0.434253 12.924C1.40246 16.0954 3.90459 18.5975 7.07603 19.5657L7.06849 19.5411C6.7591 18.5316 6.16092 16.4683 5.73515 14.2651C4.90715 14.105 4.10212 13.9211 3.37 13.7389Z" fill="#2D264B"/>
<path d="M19.5411 12.9315C18.5316 13.2409 16.4681 13.8391 14.2649 14.2649C13.8391 16.4681 13.2409 18.5316 12.9315 19.5411L12.924 19.5657C16.0954 18.5975 18.5975 16.0954 19.5657 12.924L19.5411 12.9315Z" fill="#2D264B"/>
<path d="M0.105051 11.26C0.139668 11.2645 0.167881 11.2692 0.177244 11.2713C0.185448 11.2734 0.198294 11.2767 0.202955 11.278L0.213247 11.281L0.218788 11.2826L0.224619 11.2844L0.229504 11.286C0.22676 11.2851 0.171198 11.2712 0.105051 11.26Z" fill="#2D264B"/>
</svg>
